<svg width="24" height="24" viewBox="0 0 24 24" fill="none" xmlns="http://www.w3.org/2000/svg">
<g clip-path="url(#clip0_9383_9617)">
<path fill-rule="evenodd" clip-rule="evenodd" d="M16.5 15C20.6421 15 24 11.6421 24 7.5C24 3.35786 20.6421 0 16.5 0C12.3579 0 9 3.35786 9 7.5C9 11.6421 12.3579 15 16.5 15ZM17 4V7H20V8H17V11H16V8H13V7H16V4H17Z" fill="#C48E90"/>
<path fill-rule="evenodd" clip-rule="evenodd" d="M7.5 9C8.08169 9 8.64791 9.06622 9.19153 9.19154C9.83325 11.9754 12.0246 14.1667 14.8085 14.8085C14.9338 15.3521 15 15.9183 15 16.5C15 20.6421 11.6421 24 7.5 24C3.35786 24 0 20.6421 0 16.5C0 12.3579 3.35786 9 7.5 9ZM8 13V16H11V17H8V20H7V17H4V16H7V13H8Z" fill="#DAB8B9"/>
</g>
<defs>
<clipPath id="clip0_9383_9617">
<rect width="24" height="24" fill="white"/>
</clipPath>
</defs>
</svg>
