<svg width="21" height="21" viewBox="0 0 21 21" fill="none" xmlns="http://www.w3.org/2000/svg">
<path d="M0 10C10 10 10 0 10 0H11C11 0 11 10 21 10V11C11 11 11 21 11 21H10C10 21 10 11 0 11V10Z" fill="#1D1D1F"/>
<path d="M0 2.85714C2.85714 2.85714 2.85714 0 2.85714 0H3.14286C3.14286 0 3.14286 2.85714 6 2.85714V3.14286C3.14286 3.14286 3.14286 6 3.14286 6H2.85714C2.85714 6 2.85714 3.14286 0 3.14286V2.85714Z" fill="#1D1D1F"/>
<path d="M15 17.8571C17.8571 17.8571 17.8571 15 17.8571 15H18.1429C18.1429 15 18.1429 17.8571 21 17.8571V18.1429C18.1429 18.1429 18.1429 21 18.1429 21H17.8571C17.8571 21 17.8571 18.1429 15 18.1429V17.8571Z" fill="#1D1D1F"/>
</svg> 